<?xml version="1.0" ?>

<!-- Uploaded to: SVG Repo, www.svgrepo.com, Generator: SVG Repo Mixer Tools -->
<svg fill="#111111" width="800px" height="800px" viewBox="0 0 32 32" xmlns="http://www.w3.org/2000/svg">

<title/>

<g id="Apple">

<path d="M26.49,30H5.5A3.35,3.35,0,0,1,3,29a3.35,3.35,0,0,1-1-2.48V5.5A3.35,3.35,0,0,1,3,3,3.35,3.35,0,0,1,5.5,2h21A3.35,3.35,0,0,1,29,3,3.35,3.35,0,0,1,30,5.5v21A3.52,3.52,0,0,1,26.49,30ZM13.33,24.73a2.39,2.39,0,0,0,.76-.14l.67-.24.72-.23A3.46,3.46,0,0,1,16.4,24a4.09,4.09,0,0,1,1.6.35,3.64,3.64,0,0,0,1.47.35A2.52,2.52,0,0,0,21.1,24a8.81,8.81,0,0,0,1.26-1.44,8.25,8.25,0,0,0,1-1.7,4,4,0,0,0,.28-.82,3.88,3.88,0,0,1-1.22-.76,3.48,3.48,0,0,1-1.26-2.74,3.86,3.86,0,0,1,1.44-3,1.9,1.9,0,0,1,.57-.37,3.34,3.34,0,0,0-.91-.89,5.59,5.59,0,0,0-1-.52,3.83,3.83,0,0,0-.9-.25,5,5,0,0,0-.6-.07H19.4a5,5,0,0,0-1.73.36,6.27,6.27,0,0,1-1.53.44,3.69,3.69,0,0,1-1-.26,6.76,6.76,0,0,0-2.07-.47A4.56,4.56,0,0,0,9.2,13.74a5.63,5.63,0,0,0-.79,3A9.43,9.43,0,0,0,9,19.87a10.08,10.08,0,0,0,1.39,2.66A8.16,8.16,0,0,0,11.7,24a2.28,2.28,0,0,0,1.49.69Zm2.8-13.4A3.44,3.44,0,0,0,17.56,11a3.6,3.6,0,0,0,1.21-.92,3.57,3.57,0,0,0,1-2.4l0-.37A4,4,0,0,0,17,8.6a3.36,3.36,0,0,0-1,2.3,3.11,3.11,0,0,0,0,.43Z"/>

</g>

</svg>