<?xml version="1.0" ?>

<!-- Uploaded to: SVG Repo, www.svgrepo.com, Generator: SVG Repo Mixer Tools -->
<svg fill="#DC4437" width="800px" height="800px" viewBox="0 0 32 32" xmlns="http://www.w3.org/2000/svg">

<title/>

<g id="Googleplus">

<path d="M26.49,30H5.5A3.38,3.38,0,0,1,3,29,3.39,3.39,0,0,1,2,26.5v-21A3.38,3.38,0,0,1,3,3,3.38,3.38,0,0,1,5.5,2h21A3.39,3.39,0,0,1,29,3a3.38,3.38,0,0,1,1,2.48v21A3.52,3.52,0,0,1,26.49,30Zm-14-7.83A6.34,6.34,0,0,0,16.14,21a6,6,0,0,0,2.2-5c0-.24,0-.49,0-.76v0c-3.89,0-5.84,0-5.84,0v2l3.49,0a1.84,1.84,0,0,1-.22.63,3,3,0,0,1-.9,1.23,4,4,0,0,1-2.37.76,3.88,3.88,0,0,1-2.88-1.3,3.82,3.82,0,0,1-.9-2.55,3.88,3.88,0,0,1,.51-2,3.25,3.25,0,0,1,1-1.1,3.39,3.39,0,0,1,2.23-.76,4.77,4.77,0,0,1,2.59.81.68.68,0,0,0,.2-.15c.66-.66,1.11-1.14,1.34-1.43v0A6.29,6.29,0,0,0,12.71,10h-.25a6.15,6.15,0,0,0-5.85,4.31,6.21,6.21,0,0,0,.09,3.9,6.31,6.31,0,0,0,2.51,3.13A6.25,6.25,0,0,0,12.49,22.19ZM23.81,18.7l0-1.76h1.76V15.19H23.83l0-1.76H22.1v1.76H20.34v1.74H22.1V18.7Z"/>

</g>

</svg>