<?xml version="1.0" encoding="iso-8859-1"?>
<!-- Uploaded to: SVG Repo, www.svgrepo.com, Generator: SVG Repo Mixer Tools -->
<svg fill="#4E4E4E" height="800px" width="800px" version="1.1" id="Layer_1" xmlns="http://www.w3.org/2000/svg" xmlns:xlink="http://www.w3.org/1999/xlink" 
	 viewBox="0 0 512.001 512.001" xml:space="preserve">
<g>
	<g>
		<path d="M488.725,442.18h-23.273V210.593l10.58,6.884c3.919,2.551,8.319,3.769,12.671,3.769c7.609,0,15.068-3.728,19.529-10.583
			c7.01-10.774,3.958-25.19-6.814-32.198l-46.224-30.076c-0.003-0.002-0.006-0.003-0.009-0.005L268.692,27.041
			c-7.719-5.021-17.667-5.021-25.384,0L56.831,148.372c-0.011,0.008-0.022,0.014-0.033,0.022l-46.216,30.07
			c-10.772,7.01-13.824,21.426-6.814,32.198c7.011,10.774,21.428,13.824,32.2,6.814l10.58-6.884V442.18H23.275
			c-12.853,0-23.273,10.42-23.273,23.273c0,12.853,10.42,23.273,23.273,23.273H69.82h372.36h46.545
			c12.853,0,23.273-10.42,23.273-23.273C511.998,452.6,501.578,442.18,488.725,442.18z M418.908,442.181H93.093v-0.002V180.31
			L256,74.314L418.908,180.31V442.181z"/>
	</g>
</g>
<g>
	<g>
		<path d="M290.672,201.775c-12.154,0-24.194,3.401-34.671,9.531c-10.479-6.128-22.52-9.531-34.674-9.531
			c-36.795,0-65.618,28.822-65.618,65.616c0,40.867,34.699,71.309,74.879,106.557c3.297,2.892,6.636,5.821,9.998,8.795
			c4.402,3.893,9.909,5.838,15.417,5.838c5.508,0,11.016-1.947,15.419-5.84c43.645-38.6,84.869-75.059,84.869-115.351
			C356.289,230.597,327.467,201.775,290.672,201.775z M255.906,334.236c-28.279-24.874-53.651-48.236-53.651-66.845
			c0-11.05,8.021-19.071,19.073-19.071c6.197,0,12.832,3.112,16.907,7.928c4.422,5.229,10.923,8.243,17.769,8.243
			c6.848-0.002,13.349-3.018,17.769-8.246c4.071-4.814,10.704-7.925,16.899-7.925c11.051,0,19.073,8.021,19.073,19.071
			C309.744,283.478,282.03,310.681,255.906,334.236z"/>
	</g>
</g>
</svg>