<svg width="104" height="29" viewBox="0 0 104 29" fill="none" xmlns="http://www.w3.org/2000/svg">
    <path fill-rule="evenodd" clip-rule="evenodd" d="M83.609 6.231v21.01h5.784V6.23H83.61zm16.197.002V0H94.02v6.233h-3.47v3.91h3.47v12.962c0 3.657 3.882 4.424 6.652 4.424 1.127 0 2.841-.207 3.327-.288v-4.49s-1.572.146-2.024.146c-1.303 0-2.17-.289-2.17-1.886V10.143H104v-3.91h-4.194zM89.393 4.782V0h-5.785v4.782h5.785z" fill="#4A4A4A"/>
    <path fill-rule="evenodd" clip-rule="evenodd" d="M66.784 7.167s2.998-3.598 7.137-3.598c4.14 0 7.138 3.598 7.138 7.917 0 10.22-14.275 16.553-14.275 16.553S52.51 21.706 52.51 11.486c0-4.319 2.712-7.917 7.137-7.917 4.425 0 7.137 3.598 7.137 3.598z" fill="url(#uhje7kuw0a)"/>
    <path fill-rule="evenodd" clip-rule="evenodd" d="m25.713 27.007 6.559-20.824h-5.875L22.574 20.28 18.953 6.183H13.4L9.939 20.32 6.036 6.183H0l6.6 20.824h5.914l3.541-13.977 3.783 13.977h5.875zm25.777-8.904c0-8.029-3.777-12.392-10.182-12.494-6.405-.1-10.575 5.099-10.557 11.023.01 3.097 1.407 10.897 10.602 10.897 7.02 0 9.765-6.2 9.765-6.984l-5.02-.002c0 .398-1.332 2.724-4.544 2.724-4.75 0-5.12-3.85-5.12-5.164H51.49zm-5.734-3.731h-9.323c0-.277.12-4.35 4.76-4.415 3.94-.054 4.563 4.134 4.563 4.415z" fill="#4A4A4A"/>
    <defs>
        <linearGradient id="uhje7kuw0a" x1="38.235" y1="15.804" x2="62.418" y2="44.017" gradientUnits="userSpaceOnUse">
            <stop stop-color="#FF2F97"/>
            <stop offset="1" stop-color="#FF9159"/>
        </linearGradient>
    </defs>
</svg>
